<svg width="16" height="17" viewBox="0 0 16 17" fill="none" xmlns="http://www.w3.org/2000/svg"><path fill-rule="evenodd" clip-rule="evenodd" d="M3.86772 1.09399H12.1773C13.1793 1.09399 14 1.8863 14 2.84628V14.7306C14 15.5316 13.4747 16.094 12.7593 16.094C12.4131 16.094 12.0908 15.9579 11.7975 15.7158L8.09161 12.6643C8.08867 12.6619 8.06217 12.6531 8.02796 12.6531C8.0165 12.6531 8.00588 12.6541 7.99667 12.6555L7.96295 12.6651L4.24659 15.7157C3.95542 15.9562 3.61666 16.094 3.27026 16.094C2.87019 16.094 2.49709 15.9072 2.26744 15.5886C2.09267 15.346 2 15.051 2 14.7305V2.84628C2 1.88762 2.86383 1.09399 3.86772 1.09399ZM12.1792 2.2478H3.86955C3.51157 2.2478 3.19531 2.53836 3.19531 2.84624V14.7305C3.19531 14.8188 3.21555 14.8832 3.2485 14.9289C3.25409 14.9367 3.26093 14.9401 3.27209 14.9401C3.31322 14.9401 3.38574 14.9106 3.47462 14.8372L7.19099 11.7866C7.41788 11.5993 7.7208 11.4992 8.0298 11.4992C8.33882 11.4992 8.64138 11.5993 8.86789 11.7864L12.5737 14.8378C12.6668 14.9146 12.7272 14.9401 12.7612 14.9401C12.7887 14.9401 12.8084 14.9191 12.8084 14.7305V2.84624C12.8084 2.5239 12.5224 2.2478 12.1792 2.2478Z" fill="#0C172F"></path><path d="M3.64453 5.59389H13.3588" stroke="#0C172F" stroke-linecap="square"></path></svg>